<?xml version="1.0" standalone="no"?>
<!DOCTYPE svg PUBLIC "-//W3C//DTD SVG 20010904//EN"
 "http://www.w3.org/TR/2001/REC-SVG-20010904/DTD/svg10.dtd">
<svg version="1.0" xmlns="http://www.w3.org/2000/svg"
 width="900.000000pt" height="880.000000pt" viewBox="0 0 900.000000 880.000000"
 preserveAspectRatio="xMidYMid meet">

<g transform="translate(0.000000,880.000000) scale(0.100000,-0.100000)"
fill="#000000" stroke="none">
<path d="M1426 6365 c-21 -7 -52 -26 -68 -42 -59 -56 -58 -44 -58 -658 l0
-563 23 -42 c12 -24 37 -54 56 -69 l34 -26 1293 -3 1293 -2 68 -92 c37 -51 96
-131 131 -177 35 -46 61 -89 58 -95 -2 -6 -39 -54 -80 -106 -120 -149 -342
-429 -597 -750 -129 -162 -293 -368 -364 -458 -72 -90 -136 -172 -144 -183
-13 -19 -7 -19 470 -18 l484 0 100 137 c81 112 248 338 511 692 18 25 38 50
42 56 5 5 15 20 21 33 16 30 24 23 113 -106 92 -133 107 -155 363 -517 l210
-296 357 2 358 3 -3 -400 -2 -400 -90 -2 c-207 -6 -218 -7 -247 -33 -22 -19
-28 -32 -28 -67 0 -71 40 -124 276 -372 105 -111 192 -205 285 -306 29 -33 86
-93 125 -135 108 -115 159 -171 195 -213 44 -51 81 -69 124 -61 28 5 54 27
127 107 51 56 125 136 164 177 39 41 126 136 194 210 68 74 176 191 240 260
65 69 140 152 169 184 75 87 91 163 45 213 -26 28 -27 28 -182 33 l-157 5 0
520 c-1 503 -1 522 -21 560 -39 77 -25 76 -604 75 -495 0 -514 -1 -545 -20
-18 -11 -40 -35 -49 -53 -17 -31 -17 -31 -11 -4 4 21 -2 37 -27 70 -18 23 -35
44 -38 47 -3 3 -52 68 -110 144 -178 237 -232 307 -335 439 -55 71 -107 139
-115 151 -8 12 -58 77 -110 145 -165 216 -184 243 -174 256 16 23 213 280 221
290 5 6 42 53 82 105 40 52 83 109 96 125 13 17 66 86 119 155 52 69 99 130
104 135 4 6 41 53 81 105 40 52 83 109 96 125 13 17 59 77 104 135 44 58 85
110 91 117 5 7 10 15 10 18 0 3 -222 5 -493 5 l-494 0 -176 -262 c-275 -411
-308 -458 -315 -458 -6 0 -69 98 -122 189 -8 14 -25 40 -37 58 -13 17 -23 36
-23 42 0 6 -4 11 -10 11 -5 0 -10 5 -10 11 0 6 -9 22 -20 36 -19 24 -20 41
-20 318 0 161 -5 316 -10 345 -12 64 -47 113 -100 140 -39 20 -61 20 -1472 20
-1191 -1 -1440 -3 -1472 -15z m1642 -354 c20 -11 49 -32 64 -48 26 -27 67
-106 68 -129 0 -12 -114 -47 -118 -36 -38 107 -132 140 -201 71 -35 -35 -51
-96 -51 -196 1 -140 26 -197 98 -223 37 -13 45 -12 75 2 34 16 77 84 77 121 0
14 6 14 60 -5 33 -12 60 -25 60 -30 0 -22 -45 -123 -67 -149 -57 -68 -178 -94
-265 -56 -131 56 -200 266 -153 465 37 154 121 231 253 232 43 0 75 -6 100
-19z m-1048 -51 l0 -60 -152 0 -153 0 0 -75 0 -75 143 0 142 0 0 -60 0 -60
-140 0 -140 0 0 -90 0 -90 155 0 155 0 0 -60 0 -60 -220 0 -220 0 0 345 0 345
215 0 215 0 0 -60z m295 -43 l52 -97 54 100 54 100 72 0 71 0 -90 -165 -89
-165 95 -176 c53 -96 96 -177 96 -180 0 -2 -33 -4 -72 -4 l-73 0 -58 111 -59
111 -17 -28 c-10 -16 -37 -66 -60 -111 l-43 -83 -75 0 -74 0 29 53 c75 132
162 297 162 306 0 5 -38 80 -85 167 -47 86 -85 159 -85 161 0 2 32 3 71 1 l71
-3 53 -98z m1445 43 l0 -60 -155 0 -155 0 0 -75 0 -75 140 0 140 0 0 -60 0
-60 -140 0 -140 0 0 -90 0 -90 160 0 160 0 0 -60 0 -60 -220 0 -220 0 0 345 0
345 215 0 215 0 0 -60z m258 -227 l2 -283 140 0 140 0 0 -60 0 -60 -205 0
-205 0 0 338 c0 186 3 342 7 346 4 4 32 6 63 4 l55 -3 3 -282z m2079 -2435
c-3 -8 -6 -5 -6 6 -1 11 2 17 5 13 3 -3 4 -12 1 -19z m0 -50 c-3 -7 -5 -2 -5
12 0 14 2 19 5 13 2 -7 2 -19 0 -25z m0 -55 c-3 -10 -5 -4 -5 12 0 17 2 24 5
18 2 -7 2 -21 0 -30z m0 -45 c-3 -8 -6 -5 -6 6 -1 11 2 17 5 13 3 -3 4 -12 1
-19z m0 -40 c-3 -8 -6 -5 -6 6 -1 11 2 17 5 13 3 -3 4 -12 1 -19z"/>
</g>
</svg>
